<?xml version="1.0" encoding="utf-8"?>
<!-- Generator: Adobe Illustrator 16.0.3, SVG Export Plug-In . SVG Version: 6.00 Build 0)  -->
<!DOCTYPE svg PUBLIC "-//W3C//DTD SVG 1.0//EN" "http://www.w3.org/TR/2001/REC-SVG-20010904/DTD/svg10.dtd">
<svg version="1.0" id="Layer_1" xmlns="http://www.w3.org/2000/svg" xmlns:xlink="http://www.w3.org/1999/xlink" x="0px" y="0px"
	 width="100px" height="100px" viewBox="0 0 100 100" enable-background="new 0 0 100 100" xml:space="preserve">
<ellipse fill="none" stroke="#000000" stroke-miterlimit="10" cx="-8.07" cy="-8.782" rx="2.453" ry="1.811"/>
<ellipse fill="none" stroke="#000000" stroke-miterlimit="10" cx="5.773" cy="-8.081" rx="2.512" ry="1.811"/>
<ellipse fill="none" stroke="#000000" stroke-miterlimit="10" cx="-7.603" cy="-3.058" rx="2.921" ry="2.044"/>
<ellipse fill="none" stroke="#000000" stroke-miterlimit="10" cx="5.773" cy="-2.182" rx="2.512" ry="1.752"/>
<line fill="none" stroke="#000000" stroke-miterlimit="10" x1="-5.617" y1="-8.782" x2="3.262" y2="-6.971"/>
<line fill="none" stroke="#000000" stroke-miterlimit="10" x1="3.262" y1="-2.182" x2="-5.617" y2="-1.564"/>
<line fill="none" stroke="#000000" stroke-miterlimit="10" x1="-5.617" y1="-8.081" x2="-4.682" y2="-2.182"/>
<line fill="none" stroke="#000000" stroke-miterlimit="10" x1="3.262" y1="-6.971" x2="3.262" y2="-2.182"/>
<line fill="none" stroke="#000000" stroke-miterlimit="10" x1="-6.902" y1="4.244" x2="12.023" y2="7.398"/>
<line fill="none" stroke="#000000" stroke-miterlimit="10" x1="12.023" y1="7.398" x2="12.023" y2="9.15"/>
<line fill="none" stroke="#000000" stroke-miterlimit="10" x1="12.023" y1="9.15" x2="16.346" y2="9.15"/>
<line fill="none" stroke="#000000" stroke-miterlimit="10" x1="16.346" y1="9.15" x2="16.346" y2="12.421"/>
<line fill="none" stroke="#000000" stroke-miterlimit="10" x1="16.346" y1="12.421" x2="12.023" y2="12.421"/>
<line fill="none" stroke="#000000" stroke-miterlimit="10" x1="12.023" y1="12.421" x2="12.023" y2="14.407"/>
<line fill="none" stroke="#000000" stroke-miterlimit="10" x1="12.023" y1="14.407" x2="-6.902" y2="16.393"/>
<line fill="none" stroke="#000000" stroke-miterlimit="10" x1="-6.902" y1="16.393" x2="-6.902" y2="4.244"/>
<rect x="-3.397" y="-6.271" stroke="#000000" stroke-miterlimit="10" width="4.673" height="3.213"/>
<line fill="none" stroke="#000000" stroke-miterlimit="10" x1="-2.346" y1="-3.934" x2="-3.397" y2="8.274"/>
<line stroke="#000000" stroke-miterlimit="10" x1="-0.009" y1="-3.934" x2="2.561" y2="8.274"/>
<ellipse stroke="#000000" stroke-miterlimit="10" cx="-3.339" cy="8.625" rx="2.278" ry="1.227"/>
<ellipse stroke="#000000" stroke-miterlimit="10" cx="2.97" cy="8.625" rx="1.694" ry="1.227"/>
<line fill="none" stroke="#000000" stroke-miterlimit="10" x1="-7.603" y1="-3.058" x2="-5.617" y2="-3.934"/>
<line fill="none" stroke="#000000" stroke-miterlimit="10" x1="-7.603" y1="-3.058" x2="-9.542" y2="-4.576"/>
<line fill="none" stroke="#000000" stroke-miterlimit="10" x1="-7.603" y1="-3.058" x2="-8.572" y2="-1.564"/>
<line fill="none" stroke="#000000" stroke-miterlimit="10" x1="-7.603" y1="-3.058" x2="-5.617" y2="-1.564"/>
<line fill="none" stroke="#000000" stroke-miterlimit="10" x1="-8.07" y1="-8.782" x2="-6.902" y2="-9.892"/>
<line fill="none" stroke="#000000" stroke-miterlimit="10" x1="-8.07" y1="-8.782" x2="-9.542" y2="-9.892"/>
<line fill="none" stroke="#000000" stroke-miterlimit="10" x1="-8.07" y1="-8.782" x2="-9.542" y2="-7.341"/>
<line fill="none" stroke="#000000" stroke-miterlimit="10" x1="-8.07" y1="-8.782" x2="-6.902" y2="-7.341"/>
<line fill="none" stroke="#000000" stroke-miterlimit="10" x1="5.773" y1="-8.081" x2="8.089" y2="-8.782"/>
<line fill="none" stroke="#000000" stroke-miterlimit="10" x1="5.773" y1="-8.081" x2="3.969" y2="-9.337"/>
<line fill="none" stroke="#000000" stroke-miterlimit="10" x1="5.773" y1="-8.081" x2="4.664" y2="-6.464"/>
<line fill="none" stroke="#000000" stroke-miterlimit="10" x1="5.773" y1="-2.182" x2="7.419" y2="-3.496"/>
<line fill="none" stroke="#000000" stroke-miterlimit="10" x1="5.773" y1="-2.182" x2="3.969" y2="-3.058"/>
<line fill="none" stroke="#000000" stroke-miterlimit="10" x1="5.773" y1="-2.182" x2="4.664" y2="-0.617"/>
<line fill="none" stroke="#000000" stroke-miterlimit="10" x1="5.773" y1="-2.182" x2="7.634" y2="-1.014"/>
<path fill="#D42027" d="M22.304,9.851c0,0-0.982-0.013-2.218-0.028c-2.816-0.033-6.946-0.073-3.74,0.028
	c6.542,0.205,3.271-6.337,6.542,0.205s-15.399,0.031-1.566-0.218c6.917-0.125,5.848,0.656,3.05,1.469s-7.325,1.656-7.325,1.656
	s0.821-7.602,4.527-0.843"/>
<path fill="#F8ED35" d="M16.346,10.693c6.542-0.637-0.1,3.209,1.936-0.642s2.663,2.323,2.572,0s-2.364,4.214,0.302,1.35"/>
<path fill="#2E409A" d="M24.523,9.15l-1.636,0.906c1.636,3.271,1.636,3.271,1.636,3.271s-6.262-4.976-0.152-2.021"/>
</svg>
