<?xml version="1.0" encoding="utf-8"?>
<!-- Generator: Adobe Illustrator 16.0.3, SVG Export Plug-In . SVG Version: 6.00 Build 0)  -->
<!DOCTYPE svg PUBLIC "-//W3C//DTD SVG 1.0//EN" "http://www.w3.org/TR/2001/REC-SVG-20010904/DTD/svg10.dtd">
<svg version="1.0" id="Layer_1" xmlns="http://www.w3.org/2000/svg" xmlns:xlink="http://www.w3.org/1999/xlink" x="0px" y="0px"
	 width="100px" height="100px" viewBox="0 0 100 100" enable-background="new 0 0 100 100" xml:space="preserve">
<path d="M17.836,7.907h-0.5v-0.5h-3.822V6.155h-0.5l0.082-0.493l-9.661-1.61L2-2.766l1.841-0.128
	c0.312,0.998,1.48,1.722,2.923,1.722c1.689,0,3.012-0.989,3.012-2.252S8.453-5.677,6.764-5.677c-0.784,0-1.481,0.219-2.012,0.574
	v-2.5c0.53,0.364,1.228,0.589,2.012,0.589c1.689,0,3.012-1.015,3.012-2.311c0-1.296-1.323-2.311-3.012-2.311
	S3.752-10.62,3.752-9.324c0,0.178,0.03,0.348,0.077,0.513l-8.009-1.634c-0.253-1.074-1.454-1.891-2.899-1.891
	c-1.628,0-2.954,1.037-2.954,2.311c0,1.274,1.325,2.311,2.954,2.311c0.818,0,1.559-0.262,2.094-0.684l0.316,1.993
	c-0.549-0.277-1.215-0.439-1.943-0.439c-1.918,0-3.42,1.118-3.42,2.544c0,1.426,1.502,2.544,3.42,2.544
	c0.821,0,1.556-0.213,2.139-0.56l2.384-0.166l-0.477,5.534L-5.83,2.508l-0.082,0.493h-0.5V15.15h0.5l0.052,0.497l18.925-1.986
	l-0.052-0.497h0.5v-1.486h3.822v-0.5h0.5V7.907z M0.76-3.8l0.024,0.116l-1.777,0.124L-0.972-3.8H0.76z M1.782-3.8h0.667L1.792-3.754
	L1.782-3.8z M3.752-3.891L2.766-3.822v-4.185l0.986,0.201V-3.891z M4.752-3.424c0-0.129,0.042-0.252,0.104-0.371l1.159,0.563
	L5.479-2.477C5.041-2.708,4.752-3.048,4.752-3.424z M6.5-2.189L6.898-2.75l0.718,0.451C7.355-2.22,7.067-2.172,6.764-2.172
	C6.674-2.172,6.587-2.182,6.5-2.189z M8.563-2.885L7.626-3.473L8.43-4.115c0.217,0.2,0.346,0.438,0.346,0.691
	C8.775-3.231,8.695-3.05,8.563-2.885z M7.432-4.598L6.698-4.012L5.723-4.485C6.03-4.604,6.385-4.677,6.764-4.677
	C6.998-4.677,7.221-4.646,7.432-4.598z M4.752-9.324c0-0.222,0.098-0.429,0.254-0.615L6.07-9.197L5.477-8.333
	C5.04-8.576,4.752-8.931,4.752-9.324z M6.764-8.013c-0.096,0-0.188-0.01-0.28-0.019l0.593-0.864l1.686-0.51
	c0.003,0.028,0.013,0.054,0.013,0.083C8.775-8.613,7.854-8.013,6.764-8.013z M8.144-10.264L6.851-9.873L5.934-10.51
	c0.255-0.078,0.535-0.125,0.83-0.125C7.293-10.635,7.781-10.491,8.144-10.264z M-6.498-11.267l-0.618,0.588l-0.726-0.547
	c0.236-0.069,0.494-0.109,0.763-0.109C-6.877-11.335-6.684-11.308-6.498-11.267z M-8.763-10.668l0.918,0.692l-0.763,0.748
	c-0.261-0.223-0.425-0.499-0.425-0.797C-9.033-10.258-8.93-10.476-8.763-10.668z M-7.639-8.778l0.517-0.506l0.438,0.541
	C-6.812-8.724-6.944-8.714-7.08-8.714C-7.274-8.714-7.46-8.74-7.639-8.778z M-5.696-9.111L-6.4-9.981l0.833-0.792l-0.195-0.206
	c0.387,0.241,0.636,0.581,0.636,0.953C-5.126-9.673-5.346-9.35-5.696-9.111z M-4.277-3.923C-4.35-3.747-4.466-3.58-4.627-3.432
	l-1.004-0.755l1.206-0.532l-0.196-0.445C-4.551-5.1-4.495-5.03-4.441-4.959L-4.277-3.923z M-5.128-5.502l-1.412,0.624l-1.053-0.825
	c0.302-0.089,0.633-0.141,0.981-0.141C-6.056-5.845-5.542-5.712-5.128-5.502z M-9.033-4.3c0-0.331,0.178-0.64,0.469-0.894
	l1.283,1.005l-0.72,1.11l0.128,0.083C-8.561-3.271-9.033-3.756-9.033-4.3z M-7.002-2.782l0.517-0.797l0.89,0.669
	C-5.907-2.814-6.25-2.756-6.613-2.756C-6.746-2.756-6.874-2.769-7.002-2.782z M-3.419-3.392c0.013-0.026,0.021-0.054,0.033-0.081
	l0.188-0.03l-0.054-0.34c0.035-0.148,0.06-0.3,0.06-0.458c0-0.376-0.11-0.728-0.298-1.046l-0.643-4.055l-0.125,0.02
	C-4.25-9.4-4.242-9.417-4.236-9.435l6.971,1.422h-5.642V-3.8h0.931l-0.027,0.31L-3.419-3.392z M-1.08-2.552l2.072-0.145l1.384,6.572
	l-3.953-0.659L-1.08-2.552z M-2.792,5.682c-1.356,0.125-2.334,0.811-2.334,1.7c0,0.984,1.194,1.727,2.778,1.727
	c1.583,0,2.778-0.742,2.778-1.727c0-0.865-0.922-1.542-2.219-1.694l0.126-1.472l4.26,0.71l0.208,0.987
	C2.179,6.213,1.766,6.751,1.766,7.382c0,0.968,0.964,1.727,2.194,1.727S6.154,8.35,6.154,7.382S5.19,5.655,3.96,5.655
	c-0.063,0-0.123,0.01-0.185,0.014L3.656,5.103l8.857,1.476v1.329h0.5v0.5h3.822v2.271h-3.822v0.5h-0.5v1.536l-17.925,1.881V3.591
	l2.76,0.46L-2.792,5.682z"/>
</svg>
